Coordinates
version=1
nRows=16
nColumns=36
inDegrees=yes

Units are S.I. units (second, meters, Newtons, ...)
If the header above contains a line with 'inDegrees', this indicates whether rotational values are in degrees (yes) or radians (no).

endheader
time	pelvis_tilt	pelvis_list	pelvis_rotation	pelvis_tx	pelvis_ty	pelvis_tz	hip_flexion_r	hip_adduction_r	hip_rotation_r	knee_angle_r	knee_angle_r_beta	ankle_angle_r	subtalar_angle_r	mtp_angle_r	hip_flexion_l	hip_adduction_l	hip_rotation_l	knee_angle_l	knee_angle_l_beta	ankle_angle_l	subtalar_angle_l	mtp_angle_l	lumbar_extension	lumbar_bending	lumbar_rotation	arm_flex_r	arm_add_r	arm_rot_r	elbow_flex_r	pro_sup_r	arm_flex_l	arm_add_l	arm_rot_l	elbow_flex_l	pro_sup_l
      1.33333330	      2.88532522	     -1.50589045	     17.63092776	      0.79136481	      0.99766732	     -0.10232619	     22.97950518	     -3.65821604	    -12.06736297	     20.81166442	      0.36323207	     -0.01514872	      1.98739307	     -7.49947162	     -3.00003729	      4.19677666	     -9.07282237	      8.13068145	      0.14190716	     16.25637360	      4.68509662	     -7.49947162	    -10.37074089	      3.38081002	      2.07381834	     65.53184319	      5.98068486	     56.48916148	    116.29248695	     91.25974186	     53.72415721	      5.31524863	     60.79666038	    123.67334459	    104.03025109
      1.35000000	      2.97432676	     -1.60734475	     17.55268576	      0.79519861	      0.98859272	     -0.10973049	     22.28347718	     -3.56333126	    -12.12458685	     20.40954436	      0.35621375	     -0.43661312	      1.32909478	     -7.49954195	     -3.61180779	      4.09733933	     -9.22905654	      7.58117379	      0.13231644	     16.35678976	      5.05446143	     -7.49954195	     -9.94463679	      3.70685518	      1.89306157	     65.41672246	      6.03440607	     56.63721684	    116.61163372	     90.44507646	     53.29544254	      5.50388371	     60.88336154	    123.95751247	    103.15240906
      1.36666670	      2.93132720	     -1.47247482	     17.47060970	      0.79004915	      0.98842402	     -0.10757677	     21.93778214	     -3.85224319	    -12.17768647	     20.08495478	      0.35054859	     -0.46241226	      1.20597148	     -7.49954304	     -3.79366529	      4.27680539	     -9.24546363	      7.48253224	      0.13059482	     16.60863229	      4.96962296	     -7.49954304	     -9.66360293	      3.73940781	      1.89757144	     65.44513416	      5.94634020	     56.63772342	    116.65800598	     90.46104094	     53.22440214	      5.50760200	     60.88563300	    124.08522554	    103.18493650
      1.38333330	      3.37293936	     -1.51993541	     17.47968643	      0.79851233	      0.98987571	     -0.10635835	     20.79562249	     -3.61972779	    -12.11469855	     19.40559422	      0.33869151	     -1.02995413	      0.26932515	     -7.49955643	     -4.64562463	      4.06340505	     -9.37947291	      7.06495380	      0.12330671	     16.80986032	      5.16109559	     -7.49955643	     -9.73202519	      4.07661345	      1.81394820	     65.22782950	      5.88785193	     56.92125606	    116.67567046	     90.67440146	     52.63571970	      5.40087007	     60.64409971	    124.51587417	    103.63332614
      1.40000000	      3.47979720	     -1.41318477	     17.52267020	      0.79826353	      0.98787529	     -0.10677258	     20.05505450	     -3.69853078	    -12.22025317	     18.71263289	      0.32659706	     -1.46552428	     -0.08789253	     -7.49963706	     -5.09981017	      4.12649146	     -9.53472279	      6.73433832	      0.11753638	     17.05969838	      5.66377550	     -7.49963706	     -9.55086646	      4.14259803	      1.50804547	     65.01959901	      6.20939732	     57.02379590	    116.29623836	     91.67685611	     52.20044111	      5.13947275	     60.30804761	    124.80528785	    105.45107590
      1.41666670	      3.65111733	     -1.19944867	     17.62473523	      0.79740627	      0.98785399	     -0.10618901	     19.35829597	     -3.91406955	    -12.37100097	     18.12958212	      0.31642090	     -1.80675773	     -0.33567725	     -7.49974806	     -5.56081902	      4.24698677	     -9.54557358	      6.46189586	      0.11278136	     17.24096171	      5.87877400	     -7.49974806	     -9.57088585	      4.05866770	      1.37971112	     64.92093705	      6.19686177	     57.08042905	    116.34073823	     91.80190836	     52.16162021	      4.98545164	     60.05188443	    124.88344969	    105.78244554
      1.43333330	      3.60939934	     -1.04118531	     17.62871270	      0.80230439	      0.98583544	     -0.10868976	     18.83273996	     -4.07923609	    -12.49618720	     17.50690216	      0.30555308	     -1.85018082	     -0.52507389	     -7.49974899	     -5.72873476	      4.41151341	     -9.61450161	      6.31527638	      0.11022237	     17.31423678	      5.82851178	     -7.49974899	     -9.23061417	      3.96545896	      1.42010343	     64.78976551	      6.23525460	     57.19517535	    116.40063012	     91.79735337	     52.16302733	      5.04406877	     60.01843043	    124.92961396	    105.79990525
      1.45000000	      3.91775239	     -0.92224319	     17.69875804	      0.80143999	      0.98392380	     -0.10824183	     17.87558023	     -4.04674946	    -12.59927042	     16.60565755	      0.28982340	     -2.39778035	     -1.01712727	     -7.49985221	     -6.27301957	      4.40884615	     -9.86628619	      6.05162252	      0.10562074	     17.44559393	      6.23758587	     -7.49985221	     -9.27575165	      4.04658285	      1.53325813	     64.75661727	      6.13777379	     57.14882922	    116.43758017	     91.83194827	     52.22143597	      5.15062236	     59.83188167	    124.85779338	    105.60379260
      1.46666670	      4.05343719	     -0.73061923	     17.75917784	      0.80144476	      0.98421484	     -0.10834614	     17.15739409	     -4.16912977	    -12.80581636	     15.84287592	      0.27651035	     -2.57769320	     -1.13032556	     -7.49988609	     -6.61548564	      4.52376854	     -9.88422954	      5.84695035	      0.10204853	     17.48079743	      6.33150079	     -7.49988609	     -9.23773240	      3.99184982	      1.58855389	     64.89187915	      6.15692348	     57.28114609	    116.17448306	     91.21668670	     52.28634485	      5.10031837	     59.73306698	    124.92797738	    106.61437058
      1.48333330	      4.20084004	     -0.58205232	     17.94349404	      0.80525748	      0.98705336	     -0.10979217	     16.33501558	     -4.22761228	    -13.10232863	     14.99569062	      0.26172417	     -2.67541184	     -1.11663901	     -7.49992061	     -7.03647798	      4.54431581	    -10.08402335	      5.55173472	      0.09689605	     17.37629853	      6.61064499	     -7.49992061	     -9.12543925	      3.96517429	      1.60062293	     64.60520727	      6.07328281	     57.44948303	    116.12512712	     91.11920261	     51.90441943	      4.96382531	     59.89139352	    124.90879718	    106.75962719
      1.50000000	      4.33896336	     -0.34226020	     18.04362675	      0.80531380	      0.98502184	     -0.11009888	     15.49947303	     -4.34911551	    -13.35631556	     14.04488911	      0.24512956	     -2.82539370	     -1.18705750	     -7.49993047	     -7.41503122	      4.71035432	    -10.27627707	      5.31816514	      0.09281949	     17.18251483	      6.71700536	     -7.49993047	     -9.20206912	      3.87790552	      1.67842270	     64.66194992	      5.90163075	     57.48478582	    115.89455189	     91.38988635	     51.64771281	      4.86936150	     59.98890237	    125.34352552	    107.01028324
      1.51666670	      4.54899461	     -0.04680981	     18.16374378	      0.80421611	      0.98771788	     -0.10954761	     14.71010267	     -4.52471289	    -13.55390627	     13.25476593	      0.23133931	     -2.92358999	     -1.14901438	     -7.49993983	     -7.83452464	      4.92861388	    -10.30819707	      5.06989734	      0.08848640	     17.08781783	      6.83798654	     -7.49993983	     -9.45956383	      3.64369661	      1.69120047	     64.59619959	      5.78911679	     57.52756281	    115.72713714	     90.02537837	     51.48951311	      4.73004410	     60.23539236	    125.41367694	    105.04259381
      1.53333330	      4.67193878	      0.19580943	     18.22377395	      0.80429797	      0.98799953	     -0.10946984	     14.13319086	     -4.67803180	    -13.69037202	     12.56682843	      0.21933253	     -3.14185383	     -1.19513242	     -7.49995170	     -8.09958312	      5.13091390	    -10.42996062	      4.90436306	      0.08559728	     17.06691744	      7.07930785	     -7.49995170	     -9.67022553	      3.44310618	      1.50912944	     64.61958198	      6.09780819	     57.30785571	    115.40113475	     90.85518364	     51.48761570	      4.58713155	     59.99888530	    125.35459719	    106.68862927
      1.55000000	      4.74792360	      0.45013587	     18.26514299	      0.80358741	      0.98579178	     -0.10891394	     13.70023246	     -4.87059240	    -13.87053313	     12.02955430	      0.20995533	     -3.20331664	     -1.16024007	     -7.49995444	     -8.26810377	      5.34868895	    -10.25601691	      4.81582245	      0.08405196	     16.91545022	      6.82636697	     -7.49995444	     -9.80027397	      3.19682145	      1.37323496	     64.87461101	      6.41081967	     57.16563877	    115.19676137	     90.24259891	     51.77407665	      4.45082828	     59.97233390	    125.25989357	    105.24868689
      1.56666670	      4.86038910	      0.61038508	     18.34163158	      0.80368112	      0.99044542	     -0.10869317	     13.30070036	     -4.96003204	    -14.03087156	     11.58969063	      0.20227826	     -3.43653267	     -1.17085385	     -7.49995501	     -8.43745979	      5.42833824	    -10.32272099	      4.73357954	      0.08261655	     16.82255004	      6.96577006	     -7.49995501	     -9.88723783	      3.05269305	      1.27021342	     64.92467856	      6.57022960	     57.34552402	    114.93572795	     90.26869548	     51.66735289	      4.23133985	     60.08853992	    124.92982740	    105.43353888
      1.58333330	      4.95790747	      0.80476683	     18.26238554	      0.80293788	      0.98799096	     -0.10786778	     13.05361193	     -5.08268700	    -14.11949877	     11.24005356	      0.19617594	     -3.62642560	     -1.24586058	     -7.49996586	     -8.53410075	      5.60834551	    -10.31063249	      4.74155889	      0.08275581	     16.84099733	      7.05191653	     -7.49996586	    -10.07206458	      2.85291055	      1.11507165	     65.11386198	      6.84298064	     57.37321725	    114.50704473	     90.45463304	     51.76283959	      4.03620281	     59.89282208	    124.94325793	    106.63028778
